<?xml version="1.0" encoding="utf-8"?>
<!-- Generator: Adobe Illustrator 15.0.0, SVG Export Plug-In . SVG Version: 6.00 Build 0)  -->
<!DOCTYPE svg PUBLIC "-//W3C//DTD SVG 1.1 Tiny//EN" "http://www.w3.org/Graphics/SVG/1.1/DTD/svg11-tiny.dtd">
<svg version="1.1" baseProfile="tiny" id="Layer_1" xmlns="http://www.w3.org/2000/svg" xmlns:xlink="http://www.w3.org/1999/xlink"
	 x="0px" y="0px" width="340px" height="340px" viewBox="0 0 340 340" xml:space="preserve">
<path fill="#EFCD2D" stroke="#000000" stroke-width="40" stroke-miterlimit="10" d="M320,308.233c0,6.498-5.32,11.767-11.881,11.767
	H31.881C25.319,320,20,314.731,20,308.233V31.767C20,25.269,25.319,20,31.881,20h276.238C314.68,20,320,25.269,320,31.767V308.233z"
	/>
<line stroke="#000000" stroke-width="10" stroke-miterlimit="10" x1="76.5" y1="75.635" x2="138.5" y2="138.635"/>
<line stroke="#000000" stroke-width="10" stroke-miterlimit="10" x1="199" y1="139" x2="138" y2="139"/>
<line stroke="#000000" stroke-width="10" stroke-miterlimit="10" x1="264.5" y1="75.635" x2="199.5" y2="139"/>
<path d="M93,82c0,6.627-5.373,12-12,12h-9c-6.627,0-12-5.373-12-12v-6c0-6.627,5.373-12,12-12h9c6.627,0,12,5.373,12,12V82z"/>
<path d="M156,142c0,6.627-5.373,12-12,12h-9c-6.627,0-12-5.373-12-12v-6c0-6.627,5.373-12,12-12h9c6.627,0,12,5.373,12,12V142z"/>
<path d="M216,142c0,6.627-5.373,12-12,12h-9c-6.627,0-12-5.373-12-12v-6c0-6.627,5.373-12,12-12h9c6.627,0,12,5.373,12,12V142z"/>
<path d="M281,82c0,6.627-5.373,12-12,12h-9c-6.627,0-12-5.373-12-12v-6c0-6.627,5.373-12,12-12h9c6.627,0,12,5.373,12,12V82z"/>
<path d="M60,108c0-6.627,5.373-12,12-12h9c6.627,0,12,5.373,12,12v95c0,6.627-5.373,12-12,12h-9c-6.627,0-12-5.373-12-12V108z"/>
<path d="M248,108c0-6.627,5.373-12,12-12h9c6.627,0,12,5.373,12,12v95c0,6.627-5.373,12-12,12h-9c-6.627,0-12-5.373-12-12V108z"/>
<path d="M123,168c0-6.627,5.373-12,12-12h9c6.627,0,12,5.373,12,12v95c0,6.627-5.373,12-12,12h-9c-6.627,0-12-5.373-12-12V168z"/>
<path d="M182,168c0-6.627,5.373-12,12-12h9c6.627,0,12,5.373,12,12v95c0,6.627-5.373,12-12,12h-9c-6.627,0-12-5.373-12-12V168z"/>
</svg>
